<?xml version="1.0" standalone="no"?>
<!DOCTYPE svg PUBLIC "-//W3C//DTD SVG 20010904//EN"
 "http://www.w3.org/TR/2001/REC-SVG-20010904/DTD/svg10.dtd">
<svg version="1.0" xmlns="http://www.w3.org/2000/svg"
 width="300.000000pt" height="480.000000pt" viewBox="0 0 300.000000 480.000000"
 preserveAspectRatio="xMidYMid meet">
<metadata>
Created by potrace 1.10, written by Peter Selinger 2001-2011
</metadata>
<g transform="translate(0.000000,480.000000) scale(0.100000,-0.100000)"
fill="#000000" stroke="none">
<path d="M1220 4722 c-99 -33 -182 -84 -261 -162 -161 -158 -258 -363 -259
-545 0 -85 -17 -135 -57 -178 -45 -47 -53 -69 -53 -138 0 -99 16 -136 79 -183
81 -61 107 -91 169 -201 31 -55 58 -103 60 -107 2 -4 -12 -4 -31 -1 -85 13
-200 -58 -243 -152 -69 -146 26 -445 161 -509 19 -9 35 -23 35 -31 0 -41 -88
-191 -185 -315 -126 -161 -168 -222 -191 -278 -20 -51 -11 -67 42 -75 41 -7
130 -61 145 -88 14 -26 -10 -67 -68 -119 -64 -56 -138 -144 -174 -205 -61
-106 -59 -212 5 -370 33 -80 122 -357 157 -490 10 -38 19 -90 19 -113 l0 -44
48 4 c45 3 53 0 90 -34 23 -21 42 -42 42 -46 0 -5 -25 -47 -55 -94 -69 -106
-76 -137 -42 -172 15 -14 35 -26 46 -26 15 0 133 50 210 89 18 9 28 27 35 62
3 14 23 46 44 70 70 82 82 144 33 178 -16 12 -34 34 -39 50 -10 29 -9 30 34
47 l44 17 0 76 c0 42 -10 139 -21 216 -34 230 -18 341 66 434 29 31 52 46 102
61 136 42 495 52 606 17 100 -32 167 -105 167 -182 0 -58 -42 -117 -150 -210
l-90 -78 0 -62 c0 -49 -4 -66 -20 -80 -22 -20 -26 -67 -10 -111 19 -50 73
-125 89 -123 9 1 22 1 29 0 18 -2 52 -62 52 -92 0 -29 60 -91 99 -104 28 -9
69 17 77 49 5 22 -19 197 -32 231 -4 10 4 9 31 -5 42 -21 60 -17 135 29 25 16
96 57 159 92 81 45 138 86 196 141 116 109 160 205 184 398 28 221 -75 410
-356 652 -108 92 -126 120 -187 284 -49 134 -76 247 -76 323 l0 50 61 -29 c86
-40 154 -48 212 -22 73 33 79 59 51 242 -30 196 -92 355 -159 406 -37 28 -152
60 -254 70 l-71 7 15 26 c8 14 33 77 54 140 40 114 64 151 112 177 44 22 64
110 35 149 -12 16 -12 25 0 58 32 89 8 150 -68 177 l-35 13 -6 91 c-12 184
-82 314 -192 361 -33 13 -35 17 -35 60 0 99 -61 162 -202 210 -72 24 -102 29
-218 32 -110 2 -145 0 -190 -15z m356 -206 c191 -51 352 -222 362 -384 l4 -63
-43 30 c-56 39 -143 61 -238 61 -89 0 -146 -23 -186 -76 -24 -32 -30 -34 -82
-34 -47 0 -58 4 -75 25 -23 30 -75 58 -136 75 -33 8 -67 8 -134 0 -105 -12
-136 -24 -200 -73 -42 -32 -48 -34 -48 -17 0 135 137 318 301 401 33 16 94 38
137 49 93 23 264 26 338 6z m406 -633 c33 -47 36 -59 42 -152 9 -121 1 -196
-29 -276 -36 -96 -103 -223 -124 -235 -37 -19 -218 -58 -330 -70 -144 -16
-402 -8 -491 15 -61 15 -70 21 -114 75 -49 61 -130 210 -166 306 -15 43 -20
78 -20 161 0 95 3 111 25 148 40 69 65 69 108 1 15 -25 46 -61 69 -81 39 -36
43 -37 98 -32 59 5 126 33 150 63 8 9 47 41 87 70 65 48 78 54 122 54 48 0 51
-1 113 -70 75 -82 120 -105 191 -97 66 8 96 29 162 114 32 40 61 70 65 66 4
-4 23 -31 42 -60z m148 2 c8 -10 8 -24 -1 -54 -11 -39 -35 -60 -49 -44 -11 14
-32 112 -26 122 8 12 60 -4 76 -24z m-1430 -111 c12 -31 12 -55 1 -73 -14 -22
-61 12 -61 43 0 58 42 79 60 30z m1420 -63 c16 -31 12 -65 -10 -89 -12 -12
-24 -22 -28 -22 -4 0 -7 29 -7 65 0 55 3 65 17 65 10 0 22 -9 28 -19z m-1406
-103 c8 -32 7 -68 -2 -68 -17 0 -52 32 -52 49 0 39 44 55 54 19z m982 -516
c50 -25 88 -69 104 -117 14 -43 5 -60 -10 -19 -20 54 -33 74 -52 74 -24 0 -23
-27 2 -68 20 -32 27 -72 12 -72 -4 0 -17 22 -30 49 -12 27 -29 52 -37 55 -22
8 -31 -21 -12 -42 23 -25 39 -74 29 -84 -6 -6 -24 11 -46 41 -33 47 -53 60
-68 45 -4 -3 5 -22 18 -41 26 -38 30 -58 14 -68 -17 -11 -205 92 -239 130 -74
85 -66 108 50 129 103 20 213 15 265 -12z m-143 -264 c12 -6 30 -22 40 -35 21
-26 45 -30 53 -8 9 21 31 19 44 -6 11 -20 9 -30 -32 -141 -11 -30 -38 -38 -38
-13 0 9 -7 30 -16 46 -12 25 -18 28 -30 18 -16 -13 -19 -65 -4 -74 6 -3 10
-14 10 -23 -1 -24 -36 23 -51 66 -8 26 -16 32 -32 30 -30 -4 -32 -31 -8 -78
l21 -40 -21 0 c-15 0 -27 15 -46 56 -25 55 -38 62 -57 32 -7 -12 -3 -26 17
-55 15 -22 27 -42 27 -46 0 -15 -25 -6 -52 20 -23 22 -28 35 -28 72 0 61 53
141 113 170 48 24 60 25 90 9z m362 -2177 c60 -15 73 -30 81 -88 6 -51 6 -52
-27 -72 -19 -12 -38 -21 -44 -21 -5 0 -25 28 -43 63 -33 61 -33 62 -5 29 35
-40 63 -43 63 -6 0 30 -44 75 -100 104 -20 10 -43 26 -50 36 -11 12 -1 9 35
-9 28 -14 68 -30 90 -36z m-967 -188 c4 -30 -35 -66 -89 -82 -36 -11 -43 -10
-60 5 -54 49 6 106 106 101 33 -2 41 -6 43 -24z m42 -77 c0 -2 -36 -25 -80
-50 -80 -47 -100 -67 -100 -105 0 -29 46 -28 79 2 22 19 23 19 11 2 -37 -52
-54 -65 -87 -65 -48 0 -73 16 -73 46 0 36 43 73 147 128 84 43 103 51 103 42z"/>
<path d="M1507 3798 c4 -7 24 -37 45 -67 21 -30 38 -60 38 -68 0 -7 5 -13 10
-13 15 0 11 72 -5 93 -28 38 -109 87 -88 55z"/>
<path d="M1226 3743 c-17 -35 -34 -133 -24 -133 16 0 58 80 58 111 0 55 -14
64 -34 22z"/>
<path d="M1350 3768 c-19 -5 -43 -17 -52 -25 -22 -20 -23 -61 -2 -84 13 -14
13 -20 2 -38 -22 -35 1 -44 115 -45 127 -1 138 5 134 75 -4 55 -23 81 -79 110
-41 21 -65 22 -118 7z m108 -54 c17 -3 32 -12 32 -19 0 -10 -13 -8 -49 7 -45
19 -50 20 -80 5 -32 -16 -41 -11 -18 12 12 12 39 11 115 -5z m16 -83 c7 -10
-90 -24 -105 -15 -18 11 12 24 58 24 23 0 44 -4 47 -9z"/>
<path d="M1413 3487 c-50 -54 -54 -68 -16 -58 34 9 66 51 61 81 -3 21 -6 19
-45 -23z"/>
<path d="M1492 3486 c3 -42 31 -69 59 -57 14 5 10 13 -22 51 l-40 45 3 -39z"/>
<path d="M1430 3405 c-27 -29 -22 -42 10 -25 13 7 35 9 51 6 35 -7 38 7 7 28
-30 22 -41 20 -68 -9z"/>
</g>
</svg>
