<svg id="svg" version="1.1" xmlns="http://www.w3.org/2000/svg" xmlns:xlink="http://www.w3.org/1999/xlink" width="400" height="250" viewBox="0, 0, 400,250"><g id="svgg"><path id="path0" d="M0.000 116.221 L 0.000 232.442 0.563 232.579 C 0.872 232.654,1.631 232.846,2.250 233.006 C 2.869 233.166,3.487 233.326,3.625 233.361 C 3.763 233.396,4.044 233.491,4.250 233.573 C 4.770 233.778,9.009 235.115,11.125 235.740 C 13.255 236.370,13.497 236.548,14.837 238.473 C 17.228 241.909,20.599 242.975,28.125 242.678 C 32.117 242.520,33.510 242.261,36.500 241.123 C 38.002 240.551,39.248 240.268,40.750 240.157 C 43.993 239.918,44.521 239.694,46.747 237.612 C 49.583 234.961,50.010 235.034,67.651 241.216 C 74.973 243.782,78.562 244.090,86.820 242.858 C 92.571 242.001,94.180 241.243,95.276 238.875 C 96.834 235.509,95.367 233.756,89.448 231.906 C 82.702 229.799,82.494 229.350,86.388 225.313 L 87.653 224.000 91.014 224.001 C 101.631 224.003,102.912 224.229,103.615 226.223 C 104.244 228.006,103.746 228.657,101.168 229.422 C 97.046 230.645,96.641 233.675,100.212 236.566 C 101.921 237.949,110.485 242.167,112.875 242.803 C 115.865 243.599,123.896 243.597,127.072 242.801 C 128.628 242.411,130.021 242.250,131.845 242.250 C 134.578 242.250,135.381 242.069,138.500 240.750 C 141.123 239.641,142.401 239.794,145.053 241.535 C 148.568 243.842,149.486 244.096,154.162 244.053 C 161.891 243.981,165.837 242.494,169.212 238.382 C 171.530 235.557,173.084 235.135,180.553 235.295 C 184.684 235.384,184.574 235.159,179.125 232.382 C 173.763 229.649,173.059 228.785,173.310 225.244 C 173.534 222.070,172.955 222.249,183.530 222.100 L 192.196 221.978 192.857 222.551 C 193.289 222.926,193.765 223.863,194.230 225.250 C 194.621 226.419,195.248 228.050,195.624 228.875 C 196.379 230.534,196.555 232.206,196.040 232.827 C 195.401 233.597,188.247 235.630,186.500 235.538 C 186.121 235.519,187.006 236.105,188.750 237.029 C 199.423 242.683,214.097 244.958,223.853 242.473 C 227.831 241.459,229.519 240.072,230.111 237.330 C 230.520 235.432,230.862 235.565,233.311 238.569 C 235.228 240.919,238.939 242.050,244.875 242.091 C 248.674 242.117,247.948 242.278,253.961 240.073 C 254.889 239.733,255.235 239.721,256.336 239.990 C 257.045 240.164,259.087 240.393,260.875 240.500 C 263.300 240.644,265.457 240.992,269.375 241.869 C 277.498 243.688,279.598 243.437,282.543 240.295 C 283.922 238.823,284.644 238.609,286.500 239.122 C 287.256 239.331,288.887 239.731,290.125 240.010 C 291.363 240.289,293.556 240.810,295.000 241.167 C 301.464 242.768,305.344 242.904,309.125 241.663 C 311.431 240.906,312.186 240.868,315.187 241.356 C 323.274 242.670,324.627 242.816,327.250 242.653 C 331.992 242.359,334.285 241.622,336.908 239.550 C 339.712 237.333,340.639 237.254,344.437 238.908 C 350.901 241.722,358.421 242.897,362.019 241.654 C 364.446 240.816,364.764 240.828,367.143 241.855 C 375.285 245.368,382.334 243.346,381.664 237.690 C 381.294 234.558,379.230 232.796,375.292 232.250 C 372.242 231.827,371.795 231.209,372.245 228.032 C 372.658 225.122,372.485 225.198,378.796 225.158 C 385.178 225.118,397.151 225.410,398.813 225.646 L 400.000 225.815 400.000 112.908 L 400.000 0.000 200.000 0.000 L 0.000 0.000 0.000 116.221 M369.347 33.604 C 371.269 34.183,372.098 35.005,373.362 37.585 C 374.263 39.426,374.732 40.082,375.583 40.693 C 380.108 43.942,382.968 51.833,381.630 57.375 C 380.669 61.353,382.128 64.881,385.441 66.595 C 387.443 67.630,388.656 69.917,388.419 72.209 C 388.112 75.188,386.714 75.716,384.211 73.798 C 382.083 72.167,381.227 71.750,380.004 71.750 C 378.305 71.750,377.518 71.220,373.843 67.601 C 368.673 62.510,368.575 61.918,372.262 58.125 C 375.098 55.208,375.398 52.377,373.309 48.235 C 372.586 46.799,371.995 45.534,371.997 45.422 C 372.029 43.313,369.307 41.183,366.532 41.146 C 364.539 41.120,364.182 41.512,363.601 44.375 C 363.374 45.489,362.681 47.482,362.035 48.875 C 360.624 51.916,360.459 54.290,361.446 57.339 C 362.130 59.454,362.141 60.375,361.500 62.000 C 360.812 63.746,360.857 64.244,361.997 67.515 C 365.345 77.114,357.186 76.619,351.850 66.900 C 350.882 65.135,350.758 62.881,351.498 60.462 C 351.807 59.452,352.203 57.275,352.377 55.625 C 353.139 48.397,357.085 39.251,360.313 37.230 C 361.035 36.779,362.387 35.854,363.319 35.176 C 365.820 33.355,367.267 32.978,369.347 33.604 M115.500 36.929 C 118.836 38.545,121.330 41.643,121.332 44.174 C 121.335 46.529,119.879 46.662,117.353 44.536 C 115.050 42.597,114.159 42.153,112.598 42.168 C 106.254 42.227,104.148 51.534,108.905 58.496 C 111.856 62.814,111.933 63.389,109.964 66.405 C 108.329 68.911,108.022 69.645,106.915 73.706 C 105.763 77.928,103.681 83.243,102.885 83.991 C 101.966 84.854,101.257 84.519,99.495 82.389 C 98.649 81.366,97.701 80.362,97.388 80.157 C 94.828 78.479,94.519 74.822,96.394 68.375 C 96.889 66.673,97.090 65.272,97.222 62.619 L 97.396 59.113 98.788 56.494 C 100.470 53.330,100.627 52.857,101.124 49.462 C 102.651 39.019,108.782 33.674,115.500 36.929 M44.477 36.886 C 48.475 39.063,50.494 43.409,50.104 49.000 C 49.720 54.496,49.832 56.884,50.591 59.375 C 52.012 64.042,52.514 69.940,51.596 71.175 C 49.976 73.352,47.178 71.737,44.189 66.902 C 41.614 62.734,41.374 61.593,42.375 58.250 C 43.108 55.801,43.145 54.446,42.605 49.927 C 41.769 42.932,38.784 40.071,33.696 41.389 C 31.601 41.932,31.419 41.311,33.097 39.351 C 35.639 36.380,41.296 35.155,44.477 36.886 M205.543 38.792 C 207.746 39.740,210.049 42.912,209.242 43.885 C 209.013 44.160,208.329 44.250,206.455 44.250 C 202.001 44.250,201.003 44.813,199.763 48.026 C 199.370 49.043,198.618 50.831,198.092 52.000 C 196.705 55.077,196.702 57.793,198.081 62.125 C 201.448 72.710,198.756 77.651,191.920 73.433 C 190.754 72.714,189.223 71.814,188.519 71.435 C 185.469 69.789,185.239 66.693,187.784 61.500 C 189.365 58.271,189.442 58.009,189.750 54.749 C 190.044 51.633,190.758 48.900,191.775 46.990 C 192.621 45.405,198.606 39.146,199.695 38.710 C 201.721 37.897,203.522 37.923,205.543 38.792 M258.925 41.768 C 261.975 43.323,263.202 45.668,263.406 50.328 C 263.512 52.740,263.620 53.250,264.414 55.055 C 265.298 57.066,265.303 57.097,265.138 59.602 C 264.944 62.532,265.595 65.222,267.545 69.544 C 269.119 73.034,269.214 76.760,267.859 81.875 C 266.855 85.663,266.880 85.387,266.609 96.000 C 266.428 103.113,266.182 104.500,265.038 104.863 C 263.804 105.254,262.974 104.395,260.694 100.367 C 258.787 97.000,258.832 97.338,258.788 86.023 C 258.754 77.271,258.683 75.535,258.259 73.023 C 257.990 71.429,257.596 67.819,257.383 65.000 C 256.753 56.633,256.159 55.508,251.310 53.489 C 249.283 52.645,249.039 52.633,244.685 53.157 C 242.639 53.404,242.222 50.986,243.921 48.725 C 246.540 45.240,249.120 42.476,250.375 41.813 C 252.974 40.438,256.285 40.421,258.925 41.768 M336.905 42.977 C 338.351 43.859,338.374 46.020,336.938 45.995 C 336.439 45.986,334.652 45.113,334.343 44.727 C 332.992 43.039,334.886 41.746,336.905 42.977 M301.893 43.450 C 303.825 44.446,305.168 46.361,305.419 48.480 C 305.599 49.995,305.428 50.095,303.458 49.631 C 299.262 48.641,297.348 49.313,295.631 52.375 C 295.245 53.063,294.288 54.356,293.505 55.250 C 291.221 57.855,290.909 58.892,291.269 62.697 C 291.637 66.581,291.197 67.554,288.349 69.148 C 285.701 70.631,281.130 70.874,279.730 69.607 C 278.062 68.098,281.090 59.927,286.115 52.375 C 290.973 45.074,297.680 41.280,301.893 43.450 M29.750 45.819 C 29.750 46.442,29.112 47.500,28.736 47.500 C 28.363 47.500,28.461 46.417,28.889 45.806 C 29.390 45.091,29.750 45.097,29.750 45.819 M152.525 50.946 C 152.584 52.524,152.414 53.491,151.727 55.478 C 150.513 58.989,150.801 60.090,154.154 64.750 C 157.867 69.910,157.764 71.580,153.660 72.772 C 151.286 73.462,150.804 73.959,150.453 76.081 C 150.126 78.053,149.596 78.654,147.903 78.970 C 144.880 79.535,144.261 78.084,145.886 74.240 C 146.509 72.768,146.586 72.226,146.762 68.125 C 146.924 64.353,147.066 63.241,147.637 61.250 C 148.084 59.692,148.377 57.926,148.490 56.115 C 148.637 53.747,148.762 53.170,149.371 52.052 C 150.567 49.854,152.460 49.191,152.525 50.946 M214.106 52.417 C 214.804 53.197,216.114 54.655,217.017 55.657 C 220.268 59.266,220.498 60.416,219.803 69.553 C 219.214 77.278,217.367 78.492,211.559 74.969 C 208.438 73.076,208.134 72.642,207.118 68.637 C 206.290 65.371,206.373 64.813,208.157 61.721 C 209.673 59.092,210.146 57.788,210.506 55.242 C 211.143 50.737,211.999 50.066,214.106 52.417 M368.000 52.250 C 368.000 52.578,367.833 52.750,367.515 52.750 C 366.965 52.750,366.644 52.373,366.875 52.000 C 367.163 51.534,368.000 51.720,368.000 52.250 M308.215 53.362 C 311.269 56.275,312.060 58.534,311.404 62.474 C 310.849 65.803,311.089 66.787,313.241 70.000 C 315.623 73.556,315.625 77.431,313.247 80.715 C 310.980 83.844,308.846 82.984,307.622 78.446 C 306.639 74.804,305.881 73.348,304.408 72.267 C 300.617 69.488,300.458 68.825,302.733 65.276 C 304.328 62.789,304.750 61.471,304.750 58.977 C 304.750 56.326,305.800 52.000,306.444 52.000 C 306.633 52.000,307.430 52.613,308.215 53.362 M76.769 53.481 C 77.706 54.418,77.694 55.188,76.725 56.403 C 75.995 57.318,75.960 57.456,76.137 58.750 C 76.517 61.543,75.846 63.274,74.247 63.626 C 71.689 64.187,71.539 61.050,74.015 58.781 C 75.575 57.352,75.681 56.961,74.866 55.625 C 73.559 53.482,75.069 51.780,76.769 53.481 M115.992 53.821 C 115.983 54.177,115.396 55.000,115.152 55.000 C 114.822 55.000,114.561 53.872,114.790 53.434 C 115.049 52.941,116.007 53.249,115.992 53.821 M36.950 54.300 C 37.641 54.991,36.878 56.750,35.887 56.750 C 35.282 56.750,34.926 54.996,35.420 54.450 C 35.891 53.930,36.519 53.869,36.950 54.300 M334.358 55.744 C 336.229 57.612,334.882 62.250,332.469 62.250 C 331.040 62.250,329.683 57.841,330.593 56.152 C 331.441 54.578,333.019 54.407,334.358 55.744 M204.653 56.148 C 204.885 57.073,204.035 57.920,203.280 57.516 C 202.552 57.127,202.572 56.056,203.313 55.758 C 204.228 55.390,204.481 55.464,204.653 56.148 M161.316 56.785 C 162.600 58.512,162.084 62.902,160.497 63.751 C 158.449 64.848,156.517 58.470,158.317 56.554 C 159.081 55.741,160.628 55.861,161.316 56.785 M123.451 58.938 C 125.766 62.216,126.451 65.501,124.821 65.499 C 122.935 65.497,121.646 63.774,121.633 61.239 C 121.620 58.713,122.504 57.595,123.451 58.938 M299.587 59.181 C 300.010 60.653,298.744 62.360,297.449 62.065 C 296.400 61.826,296.640 59.822,297.832 58.877 C 298.832 58.084,299.296 58.164,299.587 59.181 M250.840 58.844 C 252.864 59.690,252.424 63.000,250.287 63.000 C 249.104 63.000,248.087 59.913,248.977 59.023 C 249.594 58.406,249.754 58.391,250.840 58.844 M242.693 60.314 C 243.283 60.942,245.000 65.812,245.000 66.857 C 245.000 69.901,240.532 71.331,239.756 68.535 C 238.582 64.311,240.750 58.246,242.693 60.314 M30.600 63.581 C 31.087 64.899,30.308 65.386,29.159 64.482 C 28.522 63.981,28.229 62.604,28.666 62.168 C 28.941 61.892,30.359 62.928,30.600 63.581 M40.187 68.129 C 40.565 68.353,41.492 69.344,42.246 70.331 C 44.357 73.093,45.723 74.278,48.509 75.761 C 53.041 78.173,53.166 79.519,50.110 93.020 C 49.085 97.547,49.181 99.427,50.656 103.697 C 52.181 108.116,51.679 109.740,48.892 109.401 C 45.413 108.978,44.406 108.986,40.500 109.466 C 38.231 109.745,34.781 110.227,32.834 110.536 C 28.796 111.177,27.754 111.071,26.906 109.928 C 26.101 108.845,26.198 106.120,27.117 104.000 C 28.269 101.340,28.303 100.962,27.725 97.250 C 26.937 92.190,26.546 90.478,25.928 89.382 C 25.390 88.430,25.023 88.126,22.765 86.762 C 20.912 85.643,21.634 83.790,25.323 80.191 C 27.598 77.973,28.219 76.832,28.875 73.660 C 29.022 72.954,29.039 72.947,30.365 73.113 C 32.841 73.422,35.444 72.177,36.735 70.066 C 38.365 67.402,38.671 67.230,40.187 68.129 M117.728 68.284 C 118.424 69.031,118.603 70.114,118.243 71.401 C 117.388 74.455,119.409 76.966,123.563 78.011 C 124.775 78.316,126.250 78.014,126.250 77.462 C 126.250 77.024,125.521 75.493,124.928 74.688 C 122.982 72.043,123.357 71.500,127.133 71.500 C 129.251 71.500,130.351 71.376,131.540 71.003 C 136.006 69.603,138.052 71.065,138.778 76.172 C 139.667 82.420,138.266 86.343,133.963 89.653 C 133.070 90.341,132.346 91.134,132.121 91.673 C 131.684 92.719,131.615 98.160,132.005 100.750 C 132.540 104.296,132.580 109.298,132.082 110.233 C 130.230 113.709,117.309 114.223,112.634 111.006 C 109.695 108.984,103.054 107.442,101.266 108.367 C 99.564 109.247,97.467 112.414,96.618 115.388 C 95.432 119.542,92.296 120.599,85.165 119.248 C 82.218 118.690,81.401 118.680,77.430 119.158 C 76.295 119.294,76.075 119.210,73.055 117.486 C 69.192 115.280,68.517 115.157,65.506 116.108 C 62.240 117.140,61.260 116.652,59.019 112.875 C 56.653 108.886,56.443 107.755,57.256 103.361 C 57.815 100.338,58.230 94.139,58.260 88.375 C 58.289 82.543,59.094 80.429,62.625 76.907 C 65.687 73.851,66.786 73.693,71.354 75.653 C 75.909 77.606,76.850 77.673,79.004 76.199 C 81.336 74.602,82.665 74.150,84.529 74.319 C 87.003 74.544,87.833 75.419,89.681 79.750 C 90.149 80.848,90.933 81.984,92.096 83.250 C 94.352 85.707,95.051 87.258,95.981 91.875 C 97.444 99.131,99.166 103.000,100.933 103.000 C 102.992 103.000,106.582 94.335,107.510 87.125 C 107.835 84.599,108.316 82.314,108.982 80.125 C 109.526 78.338,110.151 75.862,110.372 74.625 C 110.895 71.686,111.735 69.955,113.081 69.036 C 115.082 67.672,116.885 67.379,117.728 68.284 M252.791 69.251 C 254.410 71.430,255.172 81.725,254.150 87.625 C 253.823 89.520,253.754 90.852,253.868 93.125 C 254.204 99.801,254.186 107.480,253.835 107.982 C 253.370 108.645,252.375 108.918,248.750 109.378 C 247.031 109.597,244.556 110.001,243.250 110.277 C 236.964 111.604,236.552 111.537,235.868 109.071 C 235.027 106.037,234.701 105.660,232.250 104.886 C 230.338 104.282,228.646 103.079,226.778 100.992 C 224.151 98.058,223.178 97.882,222.389 100.199 C 221.190 103.716,222.044 107.415,225.077 111.845 C 229.397 118.154,222.179 120.823,213.554 116.106 C 206.070 112.013,204.137 111.247,199.006 110.343 C 193.104 109.304,191.900 109.700,189.584 113.440 L 189.043 114.314 188.515 113.345 C 188.225 112.811,187.488 111.670,186.877 110.809 C 185.305 108.591,185.000 107.346,185.000 103.142 C 184.999 99.170,184.686 98.075,183.424 97.637 C 182.518 97.323,181.962 97.669,181.593 98.777 C 179.702 104.460,179.471 105.356,179.249 107.890 C 178.823 112.735,173.850 120.194,171.618 119.338 C 170.982 119.094,171.374 111.978,172.096 110.655 C 172.387 110.121,172.816 109.334,173.050 108.905 C 173.749 107.624,173.583 106.250,172.729 106.250 C 172.147 106.250,171.611 107.049,171.121 108.645 C 170.475 110.751,170.048 111.035,166.263 111.872 C 164.775 112.201,162.222 113.000,160.591 113.648 C 155.145 115.810,152.750 115.468,152.750 112.528 C 152.750 110.125,152.284 108.244,151.258 106.500 C 149.101 102.834,149.283 100.922,151.901 99.764 C 154.802 98.481,153.102 95.322,147.318 91.247 C 145.088 89.676,145.094 89.686,145.647 88.416 C 146.777 85.821,148.297 84.742,151.493 84.263 C 152.570 84.101,153.787 83.732,154.368 83.390 C 155.601 82.664,160.706 77.253,162.362 74.918 C 164.099 72.467,165.489 72.316,169.815 74.107 C 170.970 74.585,172.918 75.160,174.145 75.384 C 175.371 75.609,177.333 76.120,178.505 76.521 C 181.175 77.435,181.250 77.433,183.125 76.384 C 185.965 74.796,187.920 74.959,190.098 76.965 C 191.904 78.628,192.122 78.773,193.180 79.016 C 194.521 79.324,196.878 78.900,200.260 77.742 C 203.441 76.653,203.593 76.656,205.925 77.837 C 206.638 78.198,208.212 78.779,209.423 79.127 C 210.634 79.476,212.637 80.113,213.875 80.543 C 215.346 81.054,216.774 81.362,218.000 81.431 L 219.875 81.536 221.416 80.257 C 224.350 77.821,225.838 78.163,227.398 81.632 C 228.441 83.949,231.224 88.468,231.797 88.775 C 232.546 89.176,233.279 88.525,234.829 86.083 C 240.976 76.397,242.016 75.168,246.189 72.654 C 247.048 72.136,248.509 70.985,249.434 70.095 C 251.295 68.306,251.964 68.138,252.791 69.251 M369.910 69.336 C 370.768 69.926,371.622 70.918,372.818 72.712 C 374.791 75.673,376.047 76.647,379.000 77.508 C 381.578 78.260,382.112 78.567,384.157 80.468 C 385.137 81.379,386.505 82.631,387.198 83.250 C 389.236 85.071,389.902 91.523,388.514 96.000 C 388.000 97.658,387.915 98.569,387.778 103.875 C 387.566 112.074,387.597 112.029,381.850 112.544 C 377.351 112.948,376.044 112.632,370.422 109.777 C 359.886 104.428,355.836 104.171,353.339 108.693 C 352.829 109.618,351.776 111.275,350.999 112.375 C 350.223 113.475,349.202 115.035,348.731 115.843 C 346.085 120.379,342.862 121.693,341.276 118.883 C 339.920 116.480,338.541 115.979,332.991 115.873 C 325.209 115.723,322.837 113.953,324.620 109.625 C 325.773 106.826,325.234 104.560,323.555 105.146 C 322.570 105.490,321.381 107.416,321.020 109.251 C 320.555 111.612,319.496 112.443,317.887 111.710 C 317.039 111.323,317.037 110.154,317.881 108.488 C 318.715 106.843,319.135 105.062,319.625 101.099 C 320.074 97.468,320.088 97.552,318.391 93.556 C 316.939 90.137,317.334 88.701,320.408 86.207 C 322.725 84.328,323.101 83.469,322.841 80.648 C 322.406 75.932,324.587 74.297,327.375 77.250 C 329.917 79.943,332.380 78.520,334.052 73.391 C 335.135 70.071,338.763 68.899,345.006 69.851 C 349.364 70.516,350.267 71.021,352.867 74.250 C 357.083 79.487,358.747 80.399,361.920 79.212 C 365.046 78.042,366.473 75.808,366.968 71.309 C 367.306 68.234,367.814 67.893,369.910 69.336 M24.924 69.376 C 25.616 69.993,25.618 70.006,25.125 70.387 C 23.882 71.345,21.636 70.343,22.612 69.265 C 23.235 68.576,24.071 68.616,24.924 69.376 M295.660 74.606 C 296.741 74.802,298.494 75.036,299.556 75.127 C 302.732 75.398,303.701 76.427,304.423 80.300 C 305.074 83.791,305.243 84.254,306.284 85.383 C 307.050 86.214,307.767 86.654,309.331 87.250 C 312.888 88.609,313.019 88.940,311.396 92.480 C 308.813 98.116,308.557 104.013,310.679 109.000 C 312.893 114.202,311.704 116.046,305.699 116.725 C 290.210 118.477,288.281 117.979,290.125 112.702 C 291.218 109.572,291.036 109.036,288.154 106.904 C 285.000 104.572,283.452 101.901,282.995 98.000 C 282.510 93.869,282.092 93.006,280.343 92.523 C 278.730 92.078,277.146 93.051,275.458 95.526 C 274.008 97.652,272.478 97.888,271.637 96.115 C 270.862 94.483,271.162 92.813,272.627 90.606 C 273.745 88.921,273.879 88.256,273.501 86.253 C 273.072 83.983,273.263 83.223,274.942 80.502 C 278.296 75.065,279.504 74.402,285.250 74.839 C 287.001 74.973,287.986 74.927,289.000 74.663 C 290.820 74.190,293.247 74.169,295.660 74.606 M14.344 86.286 C 14.286 88.711,12.763 92.250,11.777 92.250 C 10.497 92.250,9.755 90.201,10.230 87.983 C 11.000 84.395,14.421 82.985,14.344 86.286 M43.697 93.141 C 43.116 94.417,44.372 97.294,45.347 96.920 C 46.223 96.584,46.150 94.326,45.225 93.150 C 44.578 92.327,44.070 92.324,43.697 93.141 M67.683 94.499 C 63.949 97.436,63.096 107.938,66.447 109.723 C 67.900 110.497,68.473 109.568,69.494 104.780 C 69.904 102.856,70.467 100.461,70.745 99.458 C 71.839 95.509,70.061 92.629,67.683 94.499 M193.533 97.655 C 191.855 98.830,192.865 103.036,195.078 104.086 C 197.528 105.248,199.398 103.668,198.076 101.554 C 196.179 98.522,194.434 97.024,193.533 97.655 M348.310 99.063 C 346.002 101.526,347.617 107.590,350.395 106.892 C 353.208 106.186,353.759 102.072,351.374 99.583 C 350.161 98.317,349.167 98.148,348.310 99.063 M278.366 111.835 C 279.405 112.868,279.757 113.362,279.496 113.424 C 278.852 113.577,277.331 112.672,276.522 111.653 C 274.805 109.492,276.139 109.623,278.366 111.835 M253.806 113.255 C 258.062 114.467,261.294 121.440,261.336 129.500 C 261.361 134.307,260.505 137.318,256.773 145.557 C 254.090 151.481,254.120 151.315,254.154 160.125 C 254.186 168.404,254.393 170.462,255.875 177.250 C 257.754 185.858,258.221 190.546,258.504 203.625 C 258.765 215.710,259.214 218.586,261.525 222.979 C 262.704 225.221,262.725 225.743,261.716 227.700 C 260.102 230.829,258.945 231.558,254.901 231.994 C 251.892 232.318,252.056 232.487,252.616 229.639 C 253.295 226.186,252.867 225.418,249.487 224.023 C 245.116 222.220,244.160 220.166,243.372 210.875 C 242.303 198.278,239.704 186.318,235.734 175.733 C 233.311 169.273,233.309 168.919,235.630 158.477 C 237.200 151.414,237.279 150.199,236.509 144.962 C 235.706 139.494,235.488 136.564,235.544 131.975 C 235.591 128.086,235.521 127.240,234.887 123.990 C 233.926 119.070,234.249 117.260,236.310 115.996 C 239.983 113.743,250.007 112.173,253.806 113.255 M46.801 113.389 C 49.991 114.475,50.699 115.836,51.275 121.990 C 51.858 128.210,51.855 129.494,51.249 132.959 C 50.893 134.993,50.763 136.791,50.787 139.334 C 50.819 142.682,50.777 143.011,50.019 145.375 C 47.390 153.564,46.583 164.299,47.590 177.661 C 48.184 185.538,47.816 190.518,45.741 202.695 C 44.594 209.432,44.512 211.763,45.278 215.875 C 46.501 222.429,46.133 225.095,43.655 227.645 C 41.525 229.838,40.368 229.719,39.980 227.266 C 39.633 225.072,39.048 224.552,35.458 223.245 C 32.571 222.194,32.009 221.306,30.160 214.875 C 28.593 209.420,28.105 208.136,25.125 201.625 C 22.452 195.786,20.811 191.900,18.684 186.375 C 17.784 184.037,16.352 180.559,15.502 178.644 C 11.959 170.661,12.179 166.690,17.257 147.000 C 17.806 144.869,18.714 141.325,19.273 139.125 C 19.832 136.925,20.830 133.269,21.489 131.000 C 22.149 128.731,22.933 125.469,23.231 123.750 C 24.389 117.081,24.518 116.933,30.784 115.107 C 37.326 113.201,44.113 112.473,46.801 113.389 M371.438 114.532 C 375.219 115.763,375.521 115.820,379.064 115.984 C 384.944 116.256,385.918 117.823,382.207 121.037 C 379.523 123.363,379.492 124.358,382.067 125.655 C 385.558 127.414,385.473 127.156,385.695 136.679 C 386.379 165.959,385.980 169.790,381.249 179.375 C 379.892 182.125,378.105 185.781,377.279 187.500 C 376.453 189.219,374.690 192.650,373.361 195.125 C 368.931 203.376,368.700 204.347,369.880 209.750 C 371.166 215.639,370.977 217.596,368.996 218.907 C 366.231 220.737,364.534 219.662,362.994 215.109 C 362.111 212.494,361.447 211.572,359.491 210.244 C 356.610 208.287,356.504 207.880,357.896 204.075 C 359.035 200.961,359.050 199.698,358.024 193.375 C 356.652 184.925,356.475 179.602,357.380 174.081 C 358.114 169.601,357.761 165.182,356.020 157.053 C 352.517 140.696,352.221 138.905,351.734 131.125 C 350.951 118.635,353.050 114.099,357.589 118.469 C 359.951 120.743,360.689 121.112,362.875 121.111 C 366.802 121.109,368.164 119.263,366.644 115.998 C 365.161 112.813,365.675 112.656,371.438 114.532 M202.888 114.621 C 204.802 115.264,206.895 116.247,212.250 119.021 C 213.969 119.912,216.556 121.017,218.000 121.479 C 223.908 123.366,224.585 124.700,222.564 130.458 C 221.020 134.855,221.196 136.592,223.538 140.052 C 224.815 141.938,224.853 142.053,225.861 147.192 C 228.575 161.020,229.726 174.566,228.659 180.125 C 227.698 185.133,225.457 192.567,223.195 198.250 C 221.954 201.370,219.433 208.260,217.890 212.750 C 216.575 216.576,215.822 217.816,213.974 219.200 C 213.753 219.365,212.291 219.782,210.724 220.127 C 204.043 221.595,202.838 223.096,203.581 229.027 C 204.104 233.201,204.648 233.803,209.220 235.268 C 211.959 236.145,213.330 236.212,216.586 235.626 C 221.404 234.758,224.630 237.077,221.105 238.875 C 220.253 239.310,219.529 239.386,215.566 239.457 C 206.696 239.617,203.788 238.375,203.395 234.259 C 203.310 233.371,203.102 232.460,202.933 232.235 C 202.763 232.010,201.925 230.903,201.068 229.775 C 199.209 227.323,198.919 226.408,198.960 223.125 C 198.978 221.750,198.895 220.006,198.776 219.250 C 195.095 195.768,194.747 190.578,196.011 178.000 C 196.936 168.804,196.748 164.576,195.123 158.000 C 194.800 156.694,194.247 154.101,193.895 152.238 C 193.220 148.668,192.591 146.583,191.258 143.500 C 187.672 135.202,188.050 130.599,193.150 120.500 C 196.666 113.536,197.734 112.891,202.888 114.621 M110.799 115.643 C 116.996 117.414,121.098 117.605,126.538 116.377 C 132.725 114.981,133.985 115.731,135.041 121.442 C 135.456 123.683,136.701 128.108,138.660 134.298 C 140.214 139.212,142.759 136.787,143.613 129.578 C 144.425 122.725,145.559 121.654,154.250 119.531 C 156.519 118.977,159.577 118.069,161.046 117.512 C 164.097 116.356,164.552 116.302,165.263 117.013 C 166.480 118.230,163.971 121.580,159.429 124.800 C 156.014 127.222,155.000 128.977,155.000 132.467 C 155.000 140.114,161.798 139.173,166.500 130.874 C 171.494 122.060,175.628 128.933,172.816 141.375 C 171.852 145.636,171.610 147.136,171.110 151.912 C 170.897 153.954,170.447 157.520,170.111 159.836 C 169.390 164.805,169.299 170.027,169.875 173.342 C 170.081 174.529,170.420 176.481,170.629 177.680 C 171.892 184.946,171.117 198.954,168.584 214.625 C 168.034 218.028,167.958 219.136,168.070 222.051 C 168.308 228.235,167.302 229.838,164.361 227.961 C 163.681 227.526,162.437 226.857,161.595 226.473 C 158.219 224.932,157.774 221.950,159.609 213.159 C 160.745 207.715,161.075 203.016,160.926 194.375 C 160.777 185.660,160.671 184.907,158.667 178.342 C 156.763 172.106,156.306 169.949,155.734 164.500 C 154.939 156.928,153.149 156.811,147.743 163.976 C 144.464 168.322,144.392 169.077,146.661 175.293 C 148.557 180.490,149.032 182.207,150.376 188.750 C 151.011 191.844,151.971 196.231,152.508 198.500 C 153.834 204.099,155.552 214.076,155.340 214.940 C 154.608 217.913,149.497 219.145,147.466 216.838 C 146.319 215.535,145.619 213.158,144.865 208.000 C 144.135 203.006,143.347 200.527,142.065 199.188 C 140.367 197.415,139.530 198.770,138.393 205.131 C 138.025 207.190,137.336 210.844,136.861 213.250 C 135.889 218.177,135.779 220.725,136.378 224.375 C 137.238 229.606,136.514 231.190,132.382 233.125 C 130.703 233.911,129.619 234.646,128.148 235.997 C 125.933 238.032,124.858 238.600,122.498 238.983 C 116.562 239.946,111.500 238.357,111.500 235.531 C 111.500 234.252,112.597 233.922,116.125 234.139 C 121.848 234.490,122.428 234.365,124.384 232.353 C 126.728 229.941,127.196 227.898,126.125 224.750 C 125.305 222.340,125.333 221.533,126.380 217.301 C 127.440 213.014,127.630 211.138,128.134 200.000 C 128.874 183.624,128.876 183.292,128.252 179.165 C 127.551 174.533,127.643 172.014,128.622 169.000 C 130.018 164.701,129.438 162.373,124.073 150.750 C 122.709 147.794,121.380 144.869,121.121 144.250 C 119.184 139.632,116.664 138.603,115.536 141.971 C 114.946 143.734,114.479 150.071,114.531 155.625 C 114.559 158.650,114.445 164.669,114.277 169.000 C 113.470 189.778,113.601 197.744,114.857 204.250 C 115.841 209.350,116.407 217.333,115.906 219.057 C 114.830 222.758,110.313 224.280,108.842 221.437 C 107.990 219.788,106.902 214.807,106.364 210.085 C 106.146 208.182,105.589 205.162,105.125 203.375 C 104.181 199.740,104.017 198.703,103.145 190.875 C 102.183 182.242,102.167 181.932,102.132 171.500 L 102.099 161.625 101.312 158.658 C 98.950 149.759,97.757 151.231,96.273 164.875 C 95.149 175.203,95.044 175.872,94.085 178.840 C 93.601 180.337,92.211 185.401,90.995 190.094 C 87.117 205.068,86.790 206.194,85.276 209.818 C 84.458 211.774,83.388 214.916,82.897 216.800 C 81.289 222.981,80.387 224.000,76.533 224.000 C 74.154 224.000,72.041 225.409,70.068 228.313 C 68.913 230.010,67.968 229.734,66.746 227.340 C 66.148 226.170,66.128 225.970,66.194 221.962 C 66.255 218.270,66.193 217.505,65.651 215.212 C 64.422 210.007,63.397 198.647,63.388 190.125 C 63.382 184.257,63.403 184.001,64.360 178.500 C 65.472 172.109,65.665 167.143,65.065 160.375 C 64.000 148.368,63.896 134.956,64.831 130.125 C 65.177 128.338,65.531 126.200,65.619 125.375 C 66.036 121.440,67.853 120.093,70.885 121.470 C 72.675 122.283,73.385 123.446,74.004 126.578 C 74.995 131.585,82.530 131.280,83.531 126.192 C 84.044 123.588,84.390 123.373,88.042 123.387 C 92.726 123.405,93.250 123.829,93.250 127.608 C 93.250 132.875,96.571 132.286,99.649 126.474 C 100.536 124.799,101.683 123.076,102.523 122.156 C 104.475 120.019,104.583 119.759,104.388 117.655 C 104.076 114.291,105.025 113.993,110.799 115.643 M321.204 118.619 C 322.710 119.003,325.240 119.369,327.901 119.587 C 333.615 120.056,334.712 120.623,332.952 122.201 C 328.682 126.032,327.998 127.012,328.002 129.304 C 328.007 131.994,330.499 134.750,332.926 134.750 C 335.048 134.750,337.195 133.211,339.875 129.770 C 343.029 125.720,344.409 126.449,344.337 132.125 C 344.270 137.332,342.855 141.819,338.738 149.872 C 331.473 164.088,331.032 165.010,330.581 166.939 C 329.933 169.708,329.991 177.915,330.704 184.500 C 330.994 187.181,331.408 192.100,331.622 195.431 C 332.409 207.649,333.684 214.511,335.982 218.888 C 337.258 221.321,337.455 222.179,337.006 223.359 C 336.652 224.291,336.323 224.169,334.752 222.522 C 333.158 220.853,332.065 220.497,330.000 220.977 C 325.422 222.039,324.361 220.549,322.632 210.625 C 322.129 207.738,321.270 202.844,320.723 199.750 C 320.176 196.656,319.503 192.438,319.228 190.375 C 318.628 185.886,318.179 184.064,316.455 179.125 L 315.146 175.375 315.126 169.750 C 315.106 164.279,315.086 164.070,314.413 162.125 C 312.499 156.593,310.506 156.858,309.143 162.826 C 305.157 180.283,305.005 181.112,305.002 185.507 C 305.000 188.280,304.757 190.445,303.756 196.625 C 303.355 199.100,302.906 202.869,302.758 205.000 C 302.102 214.441,300.571 218.689,297.147 220.562 C 294.483 222.020,294.246 222.441,294.178 225.827 C 294.098 229.801,292.964 230.545,290.568 228.194 C 288.317 225.985,288.187 223.554,290.096 219.375 C 292.485 214.146,292.800 204.277,290.624 202.852 C 289.101 201.854,285.409 207.012,282.523 214.168 C 280.554 219.052,279.967 219.553,276.499 219.316 C 273.287 219.095,272.940 219.237,270.479 221.771 C 267.422 224.920,266.746 224.771,266.755 220.954 C 266.769 215.107,267.398 213.834,272.333 209.668 C 274.052 208.216,274.983 206.665,276.034 203.500 C 276.753 201.338,281.495 190.470,283.139 187.219 C 283.513 186.480,285.154 183.656,286.786 180.943 C 292.231 171.892,292.131 173.868,288.104 155.125 C 287.749 153.475,286.746 149.931,285.874 147.250 C 282.554 137.036,282.602 133.645,286.116 130.250 C 287.692 128.728,288.254 127.796,288.864 125.699 C 289.975 121.879,290.328 121.723,298.153 121.610 C 304.144 121.524,306.223 121.352,311.610 120.498 C 312.577 120.345,313.607 119.946,314.565 119.355 C 317.072 117.808,317.740 117.734,321.204 118.619 M369.891 154.674 C 369.292 156.233,369.271 168.273,369.865 169.233 C 371.289 171.538,373.065 163.624,372.273 158.500 C 371.814 155.528,370.421 153.292,369.891 154.674 M210.195 160.688 C 209.369 161.634,208.983 163.817,208.395 170.882 C 208.146 173.876,207.795 176.139,207.213 178.507 L 206.385 181.875 206.387 188.375 C 206.393 202.994,208.534 205.018,211.880 193.568 C 212.513 191.400,213.592 188.162,214.277 186.375 C 216.448 180.708,216.745 179.797,216.996 178.026 C 217.923 171.489,212.605 157.929,210.195 160.688 M79.758 164.491 C 78.878 165.434,77.903 168.043,76.999 171.875 C 76.610 173.525,75.817 176.675,75.238 178.875 C 74.033 183.453,73.590 190.587,74.236 195.011 C 75.016 200.345,76.128 199.256,78.715 190.625 C 79.415 188.287,80.388 185.194,80.877 183.750 C 82.708 178.341,82.858 177.520,82.867 172.875 C 82.880 165.985,81.597 162.523,79.758 164.491 M29.165 166.998 C 28.425 167.878,27.750 169.902,27.750 171.243 C 27.750 175.281,32.252 183.151,33.954 182.089 C 35.431 181.167,35.247 178.063,33.367 172.201 C 31.393 166.049,30.693 165.182,29.165 166.998 M353.374 209.749 C 354.149 210.605,353.419 216.747,352.348 218.382 C 350.471 221.245,347.411 215.607,348.720 211.700 C 349.420 209.613,352.197 208.448,353.374 209.749 M317.921 223.736 C 320.327 224.828,320.992 229.306,318.917 230.442 C 317.315 231.318,312.220 231.062,310.274 230.007 C 306.828 228.139,306.326 225.764,309.116 224.530 C 310.068 224.109,310.831 223.907,313.375 223.406 C 314.764 223.133,316.940 223.291,317.921 223.736 M144.048 223.938 C 144.674 224.666,144.747 225.199,144.298 225.753 C 143.763 226.413,143.149 226.214,142.750 225.250 C 142.178 223.870,143.148 222.889,144.048 223.938 M346.019 225.731 C 346.661 226.373,346.750 226.639,346.746 227.918 C 346.737 231.521,343.867 232.713,342.492 229.685 C 341.050 226.509,343.760 223.471,346.019 225.731 M361.254 228.125 C 364.154 231.774,364.904 235.320,362.314 233.140 C 361.574 232.518,359.500 229.296,359.500 228.769 C 359.500 228.621,359.387 228.500,359.250 228.500 C 358.988 228.500,358.896 227.187,359.141 226.943 C 359.471 226.612,360.516 227.198,361.254 228.125 M270.834 231.207 C 271.682 232.008,273.193 233.199,274.193 233.854 C 276.587 235.423,277.353 236.920,276.336 238.043 C 274.205 240.397,266.436 233.172,267.986 230.276 C 268.446 229.417,269.202 229.664,270.834 231.207 M355.959 233.438 C 357.590 234.650,358.292 236.692,357.266 237.241 C 355.488 238.193,352.500 235.976,352.500 233.705 C 352.500 232.093,353.993 231.978,355.959 233.438 M29.149 234.125 C 30.472 234.469,31.858 234.750,32.230 234.750 C 35.433 234.750,33.156 237.530,29.382 238.228 C 23.614 239.294,19.242 237.484,21.291 234.879 C 22.497 233.346,25.165 233.090,29.149 234.125 M250.750 234.010 C 250.750 234.702,249.930 236.252,249.208 236.926 C 246.414 239.532,237.754 238.455,238.836 235.636 C 239.053 235.072,241.307 234.558,244.875 234.261 C 246.662 234.112,248.519 233.891,249.000 233.771 C 250.438 233.410,250.750 233.453,250.750 234.010 M153.757 235.198 C 155.108 236.191,157.000 237.968,157.000 238.244 C 157.000 239.313,151.953 239.511,150.855 238.484 C 147.837 235.665,150.418 232.742,153.757 235.198 M328.200 235.574 C 329.972 236.671,330.134 237.261,328.834 237.878 C 326.784 238.851,322.384 238.511,320.253 237.215 C 319.174 236.559,319.417 236.337,322.323 235.319 C 325.198 234.312,326.236 234.357,328.200 235.574 M304.500 235.578 C 306.770 236.682,305.568 238.499,302.568 238.500 C 298.886 238.501,297.258 235.974,300.250 234.902 C 300.960 234.648,303.377 235.032,304.500 235.578 M85.941 235.995 C 90.414 238.025,80.565 240.750,75.342 238.927 C 71.657 237.641,71.329 235.922,74.807 236.123 C 76.300 236.210,77.748 236.135,78.875 235.912 C 81.590 235.377,84.659 235.413,85.941 235.995 M375.706 238.330 C 375.757 238.597,375.540 238.842,375.107 239.007 C 374.202 239.351,372.688 238.881,372.802 238.291 C 372.963 237.454,375.544 237.489,375.706 238.330 M397.551 247.691 C 397.111 247.838,397.183 248.921,397.645 249.098 C 398.240 249.326,398.750 249.281,398.750 249.000 C 398.750 248.863,398.564 248.750,398.337 248.750 C 398.007 248.750,398.040 248.649,398.500 248.250 C 398.817 247.975,399.031 247.741,398.976 247.729 C 398.483 247.627,397.797 247.609,397.551 247.691 M386.000 248.397 C 386.000 249.107,386.927 249.440,387.722 249.015 C 388.007 248.863,388.551 248.814,388.932 248.906 C 389.616 249.073,389.619 249.068,389.169 248.559 C 388.727 248.060,388.727 248.040,389.169 247.924 C 389.420 247.858,389.259 247.829,388.812 247.861 C 388.364 247.893,387.937 247.980,387.861 248.055 C 387.786 248.130,387.337 248.104,386.862 247.997 C 386.067 247.818,386.000 247.849,386.000 248.397 M389.834 248.142 C 389.751 248.357,389.811 248.661,389.967 248.817 C 390.178 249.028,390.250 248.928,390.250 248.425 C 390.250 247.673,390.063 247.545,389.834 248.142 M390.500 248.235 C 390.500 248.823,390.901 249.125,391.104 248.689 C 391.221 248.438,391.279 248.438,391.396 248.688 C 391.657 249.248,392.250 249.031,392.250 248.375 C 392.250 248.031,392.137 247.750,392.000 247.750 C 391.863 247.750,391.750 247.866,391.750 248.009 C 391.750 248.187,391.600 248.187,391.266 248.009 C 390.597 247.650,390.500 247.679,390.500 248.235 M392.545 248.287 C 392.664 249.086,393.394 249.464,393.879 248.978 C 394.451 248.406,394.091 247.750,393.206 247.750 C 392.590 247.750,392.479 247.841,392.545 248.287 M395.592 248.313 C 395.675 248.622,395.745 248.967,395.747 249.080 C 395.756 249.670,396.881 249.072,396.954 248.438 C 397.026 247.815,396.958 247.750,396.237 247.750 C 395.534 247.750,395.459 247.815,395.592 248.313 M394.774 248.485 C 394.525 248.639,394.518 248.732,394.745 248.872 C 394.909 248.973,395.156 248.944,395.294 248.806 C 395.619 248.481,395.200 248.222,394.774 248.485 " stroke="none" fill="#aeb6be" fill-rule="evenodd"></path><path id="path1" d="M366.069 33.614 C 365.488 33.795,364.250 34.498,363.319 35.176 C 362.387 35.854,361.035 36.779,360.313 37.230 C 357.085 39.251,353.139 48.397,352.377 55.625 C 352.203 57.275,351.807 59.452,351.498 60.462 C 350.758 62.881,350.882 65.135,351.850 66.900 C 357.186 76.619,365.345 77.114,361.997 67.515 C 360.857 64.244,360.812 63.746,361.500 62.000 C 362.141 60.375,362.130 59.454,361.446 57.339 C 360.459 54.290,360.624 51.916,362.035 48.875 C 362.681 47.482,363.374 45.489,363.601 44.375 C 364.182 41.512,364.539 41.120,366.532 41.146 C 369.307 41.183,372.029 43.313,371.997 45.422 C 371.995 45.534,372.586 46.799,373.309 48.235 C 375.398 52.377,375.098 55.208,372.262 58.125 C 368.575 61.918,368.673 62.510,373.843 67.601 C 377.518 71.220,378.305 71.750,380.004 71.750 C 381.227 71.750,382.083 72.167,384.211 73.798 C 386.714 75.716,388.112 75.188,388.419 72.209 C 388.656 69.917,387.443 67.630,385.441 66.595 C 382.128 64.881,380.669 61.353,381.630 57.375 C 382.968 51.833,380.108 43.942,375.583 40.693 C 374.732 40.082,374.263 39.426,373.362 37.585 C 371.568 33.921,369.204 32.634,366.069 33.614 M110.000 36.139 C 105.440 37.382,102.173 42.286,101.124 49.462 C 100.627 52.857,100.470 53.330,98.788 56.494 L 97.396 59.113 97.222 62.619 C 97.090 65.272,96.889 66.673,96.394 68.375 C 94.519 74.822,94.828 78.479,97.388 80.157 C 97.701 80.362,98.649 81.366,99.495 82.389 C 101.257 84.519,101.966 84.854,102.885 83.991 C 103.681 83.243,105.763 77.928,106.915 73.706 C 108.022 69.645,108.329 68.911,109.964 66.405 C 111.933 63.389,111.856 62.814,108.905 58.496 C 104.148 51.534,106.254 42.227,112.598 42.168 C 114.159 42.153,115.050 42.597,117.353 44.536 C 119.879 46.662,121.335 46.529,121.332 44.174 C 121.328 39.715,114.539 34.901,110.000 36.139 M38.278 36.380 C 35.367 37.195,32.495 39.311,32.086 40.942 C 31.876 41.780,32.027 41.822,33.696 41.389 C 38.784 40.071,41.769 42.932,42.605 49.927 C 43.145 54.446,43.108 55.801,42.375 58.250 C 41.374 61.593,41.614 62.734,44.189 66.902 C 47.178 71.737,49.976 73.352,51.596 71.175 C 52.514 69.940,52.012 64.042,50.591 59.375 C 49.832 56.884,49.720 54.496,50.104 49.000 C 50.702 40.429,45.114 34.467,38.278 36.380 M201.125 38.232 C 199.446 38.690,198.880 39.119,195.765 42.292 C 191.309 46.831,190.300 48.920,189.750 54.749 C 189.442 58.009,189.365 58.271,187.784 61.500 C 185.239 66.693,185.469 69.789,188.519 71.435 C 189.223 71.814,190.754 72.714,191.920 73.433 C 194.963 75.311,196.102 75.516,197.959 74.522 C 199.817 73.527,199.874 67.762,198.081 62.125 C 196.702 57.793,196.705 55.077,198.092 52.000 C 198.618 50.831,199.370 49.043,199.763 48.026 C 201.003 44.813,202.001 44.250,206.455 44.250 C 209.405 44.250,209.723 44.060,209.237 42.586 C 208.308 39.769,203.988 37.451,201.125 38.232 M252.125 41.085 C 249.623 41.913,247.679 43.723,243.921 48.725 C 242.222 50.986,242.639 53.404,244.685 53.157 C 249.039 52.633,249.283 52.645,251.310 53.489 C 256.159 55.508,256.753 56.633,257.383 65.000 C 257.596 67.819,257.990 71.429,258.259 73.023 C 258.683 75.535,258.754 77.271,258.788 86.023 C 258.832 97.338,258.787 97.000,260.694 100.367 C 262.974 104.395,263.804 105.254,265.038 104.863 C 266.182 104.500,266.428 103.113,266.609 96.000 C 266.880 85.387,266.855 85.663,267.859 81.875 C 269.214 76.760,269.119 73.034,267.545 69.544 C 265.595 65.222,264.944 62.532,265.138 59.602 C 265.303 57.097,265.298 57.066,264.414 55.055 C 263.620 53.250,263.512 52.740,263.406 50.328 C 263.097 43.256,258.054 39.124,252.125 41.085 M334.134 42.901 C 333.393 43.643,334.061 44.823,335.625 45.534 C 337.365 46.326,338.471 45.710,337.958 44.236 C 337.453 42.790,335.076 41.960,334.134 42.901 M296.843 43.194 C 292.856 44.620,289.185 47.761,286.115 52.375 C 281.090 59.927,278.062 68.098,279.730 69.607 C 281.130 70.874,285.701 70.631,288.349 69.148 C 291.197 67.554,291.637 66.581,291.269 62.697 C 290.909 58.892,291.221 57.855,293.505 55.250 C 294.288 54.356,295.245 53.063,295.631 52.375 C 297.348 49.313,299.262 48.641,303.458 49.631 C 305.428 50.095,305.599 49.995,305.419 48.480 C 304.933 44.377,300.749 41.798,296.843 43.194 M28.889 45.806 C 28.461 46.417,28.363 47.500,28.736 47.500 C 29.112 47.500,29.750 46.442,29.750 45.819 C 29.750 45.097,29.390 45.091,28.889 45.806 M150.840 50.267 C 149.416 51.169,148.684 52.989,148.490 56.115 C 148.377 57.926,148.084 59.692,147.637 61.250 C 147.066 63.241,146.924 64.353,146.762 68.125 C 146.586 72.226,146.509 72.768,145.886 74.240 C 144.261 78.084,144.880 79.535,147.903 78.970 C 149.596 78.654,150.126 78.053,150.453 76.081 C 150.804 73.959,151.286 73.462,153.660 72.772 C 157.764 71.580,157.867 69.910,154.154 64.750 C 150.801 60.090,150.513 58.989,151.727 55.478 C 153.136 51.402,152.738 49.065,150.840 50.267 M211.264 52.063 C 211.012 52.647,210.671 54.077,210.506 55.242 C 210.146 57.788,209.673 59.092,208.157 61.721 C 206.373 64.813,206.290 65.371,207.118 68.637 C 208.134 72.642,208.438 73.076,211.559 74.969 C 217.367 78.492,219.214 77.278,219.803 69.553 C 220.498 60.416,220.268 59.266,217.017 55.657 C 216.114 54.655,214.804 53.197,214.106 52.417 C 212.512 50.638,211.910 50.563,211.264 52.063 M305.815 52.813 C 305.297 54.289,304.750 57.455,304.750 58.977 C 304.750 61.471,304.328 62.789,302.733 65.276 C 300.458 68.825,300.617 69.488,304.408 72.267 C 305.881 73.348,306.639 74.804,307.622 78.446 C 308.846 82.984,310.980 83.844,313.247 80.715 C 315.625 77.431,315.623 73.556,313.241 70.000 C 311.089 66.787,310.849 65.803,311.404 62.474 C 312.060 58.534,311.269 56.275,308.215 53.362 C 306.559 51.782,306.205 51.701,305.815 52.813 M122.068 58.927 C 120.988 60.575,121.699 64.019,123.325 65.010 C 125.910 66.586,126.537 64.803,124.690 61.125 C 123.205 58.168,122.792 57.822,122.068 58.927 M241.097 59.941 C 239.477 61.013,238.943 68.561,240.401 69.772 C 241.377 70.581,243.891 69.670,244.631 68.238 C 245.174 67.188,245.095 66.472,244.112 63.534 C 243.017 60.263,242.158 59.239,241.097 59.941 M28.666 62.168 C 28.229 62.604,28.522 63.981,29.159 64.482 C 30.308 65.386,31.087 64.899,30.600 63.581 C 30.359 62.928,28.941 61.892,28.666 62.168 M246.750 113.114 C 235.153 114.799,233.405 116.401,234.887 123.990 C 235.521 127.240,235.591 128.086,235.544 131.975 C 235.488 136.564,235.706 139.494,236.509 144.962 C 237.279 150.199,237.200 151.414,235.630 158.477 C 233.309 168.919,233.311 169.273,235.734 175.733 C 239.704 186.318,242.303 198.278,243.372 210.875 C 244.160 220.166,245.116 222.220,249.487 224.023 C 252.867 225.418,253.295 226.186,252.616 229.639 C 252.056 232.487,251.892 232.318,254.901 231.994 C 258.945 231.558,260.102 230.829,261.716 227.700 C 262.725 225.743,262.704 225.221,261.525 222.979 C 259.214 218.586,258.765 215.710,258.504 203.625 C 258.221 190.546,257.754 185.858,255.875 177.250 C 254.393 170.462,254.186 168.404,254.154 160.125 C 254.120 151.315,254.090 151.481,256.773 145.557 C 261.395 135.353,262.267 130.610,260.761 123.875 C 258.700 114.660,255.107 111.900,246.750 113.114 M40.125 113.165 C 35.853 113.681,28.349 115.540,26.333 116.582 C 24.671 117.441,24.095 118.773,23.231 123.750 C 22.933 125.469,22.149 128.731,21.489 131.000 C 20.830 133.269,19.832 136.925,19.273 139.125 C 18.714 141.325,17.806 144.869,17.257 147.000 C 12.179 166.690,11.959 170.661,15.502 178.644 C 16.352 180.559,17.784 184.037,18.684 186.375 C 20.811 191.900,22.452 195.786,25.125 201.625 C 28.105 208.136,28.593 209.420,30.160 214.875 C 32.009 221.306,32.571 222.194,35.458 223.245 C 39.048 224.552,39.633 225.072,39.980 227.266 C 40.368 229.719,41.525 229.838,43.655 227.645 C 46.133 225.095,46.501 222.429,45.278 215.875 C 44.512 211.763,44.594 209.432,45.741 202.695 C 47.816 190.518,48.184 185.538,47.590 177.661 C 46.583 164.299,47.390 153.564,50.019 145.375 C 50.777 143.011,50.819 142.682,50.787 139.334 C 50.763 136.791,50.893 134.993,51.249 132.959 C 51.968 128.848,51.440 118.309,50.415 116.328 C 49.016 113.622,45.444 112.524,40.125 113.165 M366.167 113.417 C 365.845 113.739,366.011 114.638,366.644 115.998 C 368.164 119.263,366.802 121.109,362.875 121.111 C 360.689 121.112,359.951 120.743,357.589 118.469 C 353.050 114.099,350.951 118.635,351.734 131.125 C 352.221 138.905,352.517 140.696,356.020 157.053 C 357.761 165.182,358.114 169.601,357.380 174.081 C 356.475 179.602,356.652 184.925,358.024 193.375 C 359.050 199.698,359.035 200.961,357.896 204.075 C 356.504 207.880,356.610 208.287,359.491 210.244 C 361.447 211.572,362.111 212.494,362.994 215.109 C 364.534 219.662,366.231 220.737,368.996 218.907 C 370.977 217.596,371.166 215.639,369.880 209.750 C 368.700 204.347,368.931 203.376,373.361 195.125 C 374.690 192.650,376.453 189.219,377.279 187.500 C 378.105 185.781,379.892 182.125,381.249 179.375 C 385.980 169.790,386.379 165.959,385.695 136.679 C 385.473 127.156,385.558 127.414,382.067 125.655 C 379.492 124.358,379.523 123.363,382.207 121.037 C 385.918 117.823,384.944 116.256,379.064 115.984 C 375.521 115.820,375.219 115.763,371.438 114.532 C 367.646 113.297,366.523 113.060,366.167 113.417 M197.004 114.533 C 195.798 115.268,195.769 115.313,193.150 120.500 C 188.050 130.599,187.672 135.202,191.258 143.500 C 192.591 146.583,193.220 148.668,193.895 152.238 C 194.247 154.101,194.800 156.694,195.123 158.000 C 196.748 164.576,196.936 168.804,196.011 178.000 C 194.747 190.578,195.095 195.768,198.776 219.250 C 198.895 220.006,198.978 221.750,198.960 223.125 C 198.919 226.408,199.209 227.323,201.068 229.775 C 201.925 230.903,202.763 232.010,202.933 232.235 C 203.102 232.460,203.310 233.371,203.395 234.259 C 203.788 238.375,206.696 239.617,215.566 239.457 C 219.529 239.386,220.253 239.310,221.105 238.875 C 224.630 237.077,221.404 234.758,216.586 235.626 C 213.330 236.212,211.959 236.145,209.220 235.268 C 204.648 233.803,204.104 233.201,203.581 229.027 C 202.838 223.096,204.043 221.595,210.724 220.127 C 212.291 219.782,213.753 219.365,213.974 219.200 C 215.822 217.816,216.575 216.576,217.890 212.750 C 219.433 208.260,221.954 201.370,223.195 198.250 C 225.457 192.567,227.698 185.133,228.659 180.125 C 229.726 174.566,228.575 161.020,225.861 147.192 C 224.853 142.053,224.815 141.938,223.538 140.052 C 221.196 136.592,221.020 134.855,222.564 130.458 C 224.585 124.700,223.908 123.366,218.000 121.479 C 216.556 121.017,213.969 119.912,212.250 119.021 C 202.478 113.960,199.421 113.060,197.004 114.533 M105.762 114.761 C 104.440 115.062,104.195 115.578,104.388 117.655 C 104.583 119.759,104.475 120.019,102.523 122.156 C 101.683 123.076,100.536 124.799,99.649 126.474 C 96.571 132.286,93.250 132.875,93.250 127.608 C 93.250 123.829,92.726 123.405,88.042 123.387 C 84.390 123.373,84.044 123.588,83.531 126.192 C 82.530 131.280,74.995 131.585,74.004 126.578 C 73.385 123.446,72.675 122.283,70.885 121.470 C 67.853 120.093,66.036 121.440,65.619 125.375 C 65.531 126.200,65.177 128.338,64.831 130.125 C 63.896 134.956,64.000 148.368,65.065 160.375 C 65.665 167.143,65.472 172.109,64.360 178.500 C 63.403 184.001,63.382 184.257,63.388 190.125 C 63.397 198.647,64.422 210.007,65.651 215.212 C 66.193 217.505,66.255 218.270,66.194 221.962 C 66.128 225.970,66.148 226.170,66.746 227.340 C 67.968 229.734,68.913 230.010,70.068 228.313 C 72.041 225.409,74.154 224.000,76.533 224.000 C 80.387 224.000,81.289 222.981,82.897 216.800 C 83.388 214.916,84.458 211.774,85.276 209.818 C 86.790 206.194,87.117 205.068,90.995 190.094 C 92.211 185.401,93.601 180.337,94.085 178.840 C 95.044 175.872,95.149 175.203,96.273 164.875 C 97.757 151.231,98.950 149.759,101.312 158.658 L 102.099 161.625 102.132 171.500 C 102.167 181.932,102.183 182.242,103.145 190.875 C 104.017 198.703,104.181 199.740,105.125 203.375 C 105.589 205.162,106.146 208.182,106.364 210.085 C 106.902 214.807,107.990 219.788,108.842 221.437 C 110.313 224.280,114.830 222.758,115.906 219.057 C 116.407 217.333,115.841 209.350,114.857 204.250 C 113.601 197.744,113.470 189.778,114.277 169.000 C 114.445 164.669,114.559 158.650,114.531 155.625 C 114.479 150.071,114.946 143.734,115.536 141.971 C 116.664 138.603,119.184 139.632,121.121 144.250 C 121.380 144.869,122.709 147.794,124.073 150.750 C 129.438 162.373,130.018 164.701,128.622 169.000 C 127.643 172.014,127.551 174.533,128.252 179.165 C 128.876 183.292,128.874 183.624,128.134 200.000 C 127.630 211.138,127.440 213.014,126.380 217.301 C 125.333 221.533,125.305 222.340,126.125 224.750 C 127.196 227.898,126.728 229.941,124.384 232.353 C 122.428 234.365,121.848 234.490,116.125 234.139 C 112.597 233.922,111.500 234.252,111.500 235.531 C 111.500 238.357,116.562 239.946,122.498 238.983 C 124.858 238.600,125.933 238.032,128.148 235.997 C 129.619 234.646,130.703 233.911,132.382 233.125 C 136.514 231.190,137.238 229.606,136.378 224.375 C 135.779 220.725,135.889 218.177,136.861 213.250 C 137.336 210.844,138.025 207.190,138.393 205.131 C 139.530 198.770,140.367 197.415,142.065 199.188 C 143.347 200.527,144.135 203.006,144.865 208.000 C 145.619 213.158,146.319 215.535,147.466 216.838 C 149.497 219.145,154.608 217.913,155.340 214.940 C 155.552 214.076,153.834 204.099,152.508 198.500 C 151.971 196.231,151.011 191.844,150.376 188.750 C 149.032 182.207,148.557 180.490,146.661 175.293 C 144.392 169.077,144.464 168.322,147.743 163.976 C 153.149 156.811,154.939 156.928,155.734 164.500 C 156.306 169.949,156.763 172.106,158.667 178.342 C 160.671 184.907,160.777 185.660,160.926 194.375 C 161.075 203.016,160.745 207.715,159.609 213.159 C 157.774 221.950,158.219 224.932,161.595 226.473 C 162.437 226.857,163.681 227.526,164.361 227.961 C 167.302 229.838,168.308 228.235,168.070 222.051 C 167.958 219.136,168.034 218.028,168.584 214.625 C 171.117 198.954,171.892 184.946,170.629 177.680 C 170.420 176.481,170.081 174.529,169.875 173.342 C 169.299 170.027,169.390 164.805,170.111 159.836 C 170.447 157.520,170.897 153.954,171.110 151.912 C 171.610 147.136,171.852 145.636,172.816 141.375 C 175.628 128.933,171.494 122.060,166.500 130.874 C 161.798 139.173,155.000 140.114,155.000 132.467 C 155.000 128.977,156.014 127.222,159.429 124.800 C 163.971 121.580,166.480 118.230,165.263 117.013 C 164.552 116.302,164.097 116.356,161.046 117.512 C 159.577 118.069,156.519 118.977,154.250 119.531 C 145.559 121.654,144.425 122.725,143.613 129.578 C 142.759 136.787,140.214 139.212,138.660 134.298 C 136.701 128.108,135.456 123.683,135.041 121.442 C 133.985 115.731,132.725 114.981,126.538 116.377 C 121.098 117.605,116.996 117.414,110.799 115.643 C 107.038 114.569,106.792 114.525,105.762 114.761 M316.706 118.245 C 316.337 118.356,315.374 118.856,314.565 119.355 C 313.607 119.946,312.577 120.345,311.610 120.498 C 306.223 121.352,304.144 121.524,298.153 121.610 C 290.328 121.723,289.975 121.879,288.864 125.699 C 288.254 127.796,287.692 128.728,286.116 130.250 C 282.602 133.645,282.554 137.036,285.874 147.250 C 286.746 149.931,287.749 153.475,288.104 155.125 C 292.131 173.868,292.231 171.892,286.786 180.943 C 285.154 183.656,283.513 186.480,283.139 187.219 C 281.495 190.470,276.753 201.338,276.034 203.500 C 274.983 206.665,274.052 208.216,272.333 209.668 C 267.398 213.834,266.769 215.107,266.755 220.954 C 266.746 224.771,267.422 224.920,270.479 221.771 C 272.940 219.237,273.287 219.095,276.499 219.316 C 279.967 219.553,280.554 219.052,282.523 214.168 C 284.452 209.385,287.839 203.760,289.324 202.875 C 292.579 200.934,293.131 212.731,290.096 219.375 C 288.187 223.554,288.317 225.985,290.568 228.194 C 292.964 230.545,294.098 229.801,294.178 225.827 C 294.246 222.441,294.483 222.020,297.147 220.562 C 300.571 218.689,302.102 214.441,302.758 205.000 C 302.906 202.869,303.355 199.100,303.756 196.625 C 304.757 190.445,305.000 188.280,305.002 185.507 C 305.005 181.112,305.157 180.283,309.143 162.826 C 310.506 156.858,312.499 156.593,314.413 162.125 C 315.086 164.070,315.106 164.279,315.126 169.750 L 315.146 175.375 316.455 179.125 C 318.179 184.064,318.628 185.886,319.228 190.375 C 319.503 192.438,320.176 196.656,320.723 199.750 C 321.270 202.844,322.129 207.738,322.632 210.625 C 324.361 220.549,325.422 222.039,330.000 220.977 C 332.065 220.497,333.158 220.853,334.752 222.522 C 336.323 224.169,336.652 224.291,337.006 223.359 C 337.455 222.179,337.258 221.321,335.982 218.888 C 333.684 214.511,332.409 207.649,331.622 195.431 C 331.408 192.100,330.994 187.181,330.704 184.500 C 329.991 177.915,329.933 169.708,330.581 166.939 C 331.032 165.010,331.473 164.088,338.738 149.872 C 342.855 141.819,344.270 137.332,344.337 132.125 C 344.409 126.449,343.029 125.720,339.875 129.770 C 337.195 133.211,335.048 134.750,332.926 134.750 C 330.499 134.750,328.007 131.994,328.002 129.304 C 327.998 127.012,328.682 126.032,332.952 122.201 C 334.712 120.623,333.615 120.056,327.901 119.587 C 325.240 119.369,322.710 119.003,321.204 118.619 C 318.686 117.975,317.834 117.905,316.706 118.245 M371.429 155.500 C 373.224 159.141,372.450 169.500,370.384 169.500 C 369.563 169.500,369.118 164.047,369.489 158.532 C 369.807 153.811,370.253 153.113,371.429 155.500 M212.095 160.822 C 213.948 162.675,216.370 169.345,216.992 174.306 C 217.416 177.687,217.146 178.887,214.277 186.375 C 213.592 188.162,212.513 191.400,211.880 193.568 C 208.534 205.018,206.393 202.994,206.387 188.375 L 206.385 181.875 207.213 178.507 C 207.795 176.139,208.146 173.876,208.395 170.882 C 209.217 161.016,210.043 158.770,212.095 160.822 M81.727 164.968 C 82.628 166.762,82.875 168.479,82.867 172.875 C 82.858 177.520,82.708 178.341,80.877 183.750 C 80.388 185.194,79.415 188.287,78.715 190.625 C 76.128 199.256,75.016 200.345,74.236 195.011 C 73.590 190.587,74.033 183.453,75.238 178.875 C 75.817 176.675,76.610 173.525,76.999 171.875 C 78.647 164.886,80.400 162.327,81.727 164.968 M31.543 167.136 C 33.329 170.206,35.354 178.975,34.710 180.851 C 33.001 185.830,26.572 174.306,28.131 169.057 C 28.917 166.410,30.577 165.475,31.543 167.136 M349.899 210.012 C 347.319 212.277,348.300 219.000,351.210 219.000 C 352.513 219.000,353.339 216.790,353.662 212.436 C 353.906 209.164,352.152 208.034,349.899 210.012 M267.986 230.276 C 266.436 233.172,274.205 240.397,276.336 238.043 C 277.353 236.920,276.587 235.423,274.193 233.854 C 273.193 233.199,271.682 232.008,270.834 231.207 C 269.202 229.664,268.446 229.417,267.986 230.276 M353.061 232.526 C 352.285 232.813,352.290 234.364,353.070 235.522 C 354.498 237.641,357.752 238.185,357.749 236.304 C 357.746 234.416,354.665 231.933,353.061 232.526 M22.604 233.855 C 17.469 236.091,22.696 239.464,29.382 238.228 C 33.156 237.530,35.433 234.750,32.230 234.750 C 31.858 234.750,30.472 234.469,29.149 234.125 C 26.478 233.431,23.829 233.322,22.604 233.855 M249.000 233.771 C 248.519 233.891,246.662 234.112,244.875 234.261 C 241.307 234.558,239.053 235.072,238.836 235.636 C 237.754 238.455,246.414 239.532,249.208 236.926 C 249.930 236.252,250.750 234.702,250.750 234.010 C 250.750 233.453,250.438 233.410,249.000 233.771 M150.029 234.721 C 149.121 235.629,149.461 237.182,150.855 238.484 C 151.728 239.300,153.928 239.480,155.725 238.883 C 157.276 238.368,157.283 238.292,155.897 236.994 C 153.102 234.374,151.137 233.613,150.029 234.721 M322.323 235.319 C 319.417 236.337,319.174 236.559,320.253 237.215 C 323.102 238.948,329.980 238.750,329.700 236.943 C 329.405 235.034,325.556 234.187,322.323 235.319 M300.250 234.902 C 298.163 235.650,298.162 237.260,300.248 238.095 C 303.739 239.492,307.713 237.140,304.500 235.578 C 303.377 235.032,300.960 234.648,300.250 234.902 M78.875 235.912 C 77.748 236.135,76.300 236.210,74.807 236.123 C 71.958 235.958,71.560 236.319,73.111 237.660 C 75.852 240.029,84.758 240.090,86.871 237.754 C 88.454 236.006,83.818 234.938,78.875 235.912 M373.628 237.739 C 372.549 237.941,372.519 238.635,373.575 238.984 C 374.633 239.333,375.828 238.966,375.706 238.330 C 375.608 237.822,374.644 237.548,373.628 237.739 " stroke="none" fill="#1c1e29" fill-rule="evenodd"></path><path id="path2" d="M366.875 52.000 C 366.644 52.373,366.965 52.750,367.515 52.750 C 367.833 52.750,368.000 52.578,368.000 52.250 C 368.000 51.720,367.163 51.534,366.875 52.000 M74.651 53.135 C 74.229 53.557,74.332 54.749,74.866 55.625 C 75.681 56.961,75.575 57.352,74.015 58.781 C 71.539 61.050,71.689 64.187,74.247 63.626 C 75.846 63.274,76.517 61.543,76.137 58.750 C 75.960 57.456,75.995 57.318,76.725 56.403 C 78.224 54.524,76.297 51.488,74.651 53.135 M114.790 53.434 C 114.561 53.872,114.822 55.000,115.152 55.000 C 115.396 55.000,115.983 54.177,115.992 53.821 C 116.007 53.249,115.049 52.941,114.790 53.434 M35.420 54.450 C 34.926 54.996,35.282 56.750,35.887 56.750 C 36.444 56.750,37.250 55.818,37.250 55.175 C 37.250 54.047,36.172 53.620,35.420 54.450 M331.587 55.034 C 329.547 56.059,330.304 62.250,332.469 62.250 C 334.882 62.250,336.229 57.612,334.358 55.744 C 333.535 54.922,332.393 54.630,331.587 55.034 M203.313 55.758 C 202.572 56.056,202.552 57.127,203.280 57.516 C 204.035 57.920,204.885 57.073,204.653 56.148 C 204.481 55.464,204.228 55.390,203.313 55.758 M158.317 56.554 C 156.517 58.470,158.449 64.848,160.497 63.751 C 162.084 62.902,162.600 58.512,161.316 56.785 C 160.628 55.861,159.081 55.741,158.317 56.554 M297.832 58.877 C 296.640 59.822,296.400 61.826,297.449 62.065 C 298.744 62.360,300.010 60.653,299.587 59.181 C 299.296 58.164,298.832 58.084,297.832 58.877 M248.977 59.023 C 248.087 59.913,249.104 63.000,250.287 63.000 C 252.424 63.000,252.864 59.690,250.840 58.844 C 249.754 58.391,249.594 58.406,248.977 59.023 M37.988 68.203 C 37.700 68.573,37.136 69.411,36.735 70.066 C 35.444 72.177,32.841 73.422,30.365 73.113 C 29.039 72.947,29.022 72.954,28.875 73.660 C 28.219 76.832,27.598 77.973,25.323 80.191 C 21.634 83.790,20.912 85.643,22.765 86.762 C 26.372 88.941,26.460 89.127,27.725 97.250 C 28.303 100.962,28.269 101.340,27.117 104.000 C 26.198 106.120,26.101 108.845,26.906 109.928 C 27.754 111.071,28.796 111.177,32.834 110.536 C 34.781 110.227,38.231 109.745,40.500 109.466 C 44.406 108.986,45.413 108.978,48.892 109.401 C 51.679 109.740,52.181 108.116,50.656 103.697 C 49.181 99.427,49.085 97.547,50.110 93.020 C 53.166 79.519,53.041 78.173,48.509 75.761 C 45.723 74.278,44.357 73.093,42.246 70.331 C 40.231 67.694,38.903 67.031,37.988 68.203 M114.875 68.057 C 112.312 68.971,111.052 70.808,110.372 74.625 C 110.151 75.862,109.526 78.338,108.982 80.125 C 108.316 82.314,107.835 84.599,107.510 87.125 C 106.582 94.335,102.992 103.000,100.933 103.000 C 99.166 103.000,97.444 99.131,95.981 91.875 C 95.051 87.258,94.352 85.707,92.096 83.250 C 90.933 81.984,90.149 80.848,89.681 79.750 C 87.833 75.419,87.003 74.544,84.529 74.319 C 82.665 74.150,81.336 74.602,79.004 76.199 C 76.850 77.673,75.909 77.606,71.354 75.653 C 66.786 73.693,65.687 73.851,62.625 76.907 C 59.094 80.429,58.289 82.543,58.260 88.375 C 58.230 94.139,57.815 100.338,57.256 103.361 C 56.443 107.755,56.653 108.886,59.019 112.875 C 61.260 116.652,62.240 117.140,65.506 116.108 C 68.517 115.157,69.192 115.280,73.055 117.486 C 76.075 119.210,76.295 119.294,77.430 119.158 C 81.401 118.680,82.218 118.690,85.165 119.248 C 92.296 120.599,95.432 119.542,96.618 115.388 C 97.467 112.414,99.564 109.247,101.266 108.367 C 103.054 107.442,109.695 108.984,112.634 111.006 C 117.309 114.223,130.230 113.709,132.082 110.233 C 132.580 109.298,132.540 104.296,132.005 100.750 C 131.615 98.160,131.684 92.719,132.121 91.673 C 132.346 91.134,133.070 90.341,133.963 89.653 C 138.266 86.343,139.667 82.420,138.778 76.172 C 138.052 71.065,136.006 69.603,131.540 71.003 C 130.351 71.376,129.251 71.500,127.133 71.500 C 123.357 71.500,122.982 72.043,124.928 74.688 C 125.521 75.493,126.250 77.024,126.250 77.462 C 126.250 78.014,124.775 78.316,123.563 78.011 C 119.409 76.966,117.388 74.455,118.243 71.401 C 119.003 68.686,117.447 67.140,114.875 68.057 M249.434 70.095 C 248.509 70.985,247.048 72.136,246.189 72.654 C 242.016 75.168,240.976 76.397,234.829 86.083 C 233.279 88.525,232.546 89.176,231.797 88.775 C 231.224 88.468,228.441 83.949,227.398 81.632 C 225.838 78.163,224.350 77.821,221.416 80.257 L 219.875 81.536 218.000 81.431 C 216.774 81.362,215.346 81.054,213.875 80.543 C 212.637 80.113,210.634 79.476,209.423 79.127 C 208.212 78.779,206.638 78.198,205.925 77.837 C 203.593 76.656,203.441 76.653,200.260 77.742 C 196.878 78.900,194.521 79.324,193.180 79.016 C 192.122 78.773,191.904 78.628,190.098 76.965 C 187.920 74.959,185.965 74.796,183.125 76.384 C 181.250 77.433,181.175 77.435,178.505 76.521 C 177.333 76.120,175.371 75.609,174.145 75.384 C 172.918 75.160,170.970 74.585,169.815 74.107 C 165.489 72.316,164.099 72.467,162.362 74.918 C 160.706 77.253,155.601 82.664,154.368 83.390 C 153.787 83.732,152.570 84.101,151.493 84.263 C 148.297 84.742,146.777 85.821,145.647 88.416 C 145.094 89.686,145.088 89.676,147.318 91.247 C 153.102 95.322,154.802 98.481,151.901 99.764 C 149.283 100.922,149.101 102.834,151.258 106.500 C 152.284 108.244,152.750 110.125,152.750 112.528 C 152.750 115.468,155.145 115.810,160.591 113.648 C 162.222 113.000,164.775 112.201,166.263 111.872 C 170.048 111.035,170.475 110.751,171.121 108.645 C 171.611 107.049,172.147 106.250,172.729 106.250 C 173.583 106.250,173.749 107.624,173.050 108.905 C 172.816 109.334,172.387 110.121,172.096 110.655 C 171.374 111.978,170.982 119.094,171.618 119.338 C 173.850 120.194,178.823 112.735,179.249 107.890 C 179.471 105.356,179.702 104.460,181.593 98.777 C 181.962 97.669,182.518 97.323,183.424 97.637 C 184.686 98.075,184.999 99.170,185.000 103.142 C 185.000 107.346,185.305 108.591,186.877 110.809 C 187.488 111.670,188.225 112.811,188.515 113.345 L 189.043 114.314 189.584 113.440 C 191.900 109.700,193.104 109.304,199.006 110.343 C 204.137 111.247,206.070 112.013,213.554 116.106 C 222.179 120.823,229.397 118.154,225.077 111.845 C 222.044 107.415,221.190 103.716,222.389 100.199 C 223.178 97.882,224.151 98.058,226.778 100.992 C 228.646 103.079,230.338 104.282,232.250 104.886 C 234.701 105.660,235.027 106.037,235.868 109.071 C 236.552 111.537,236.964 111.604,243.250 110.277 C 244.556 110.001,247.031 109.597,248.750 109.378 C 252.375 108.918,253.370 108.645,253.835 107.982 C 254.186 107.480,254.204 99.801,253.868 93.125 C 253.754 90.852,253.823 89.520,254.150 87.625 C 254.876 83.432,254.774 76.644,253.929 72.876 C 252.833 67.994,252.095 67.537,249.434 70.095 M367.503 68.871 C 367.334 69.075,367.093 70.172,366.968 71.309 C 366.473 75.808,365.046 78.042,361.920 79.212 C 358.747 80.399,357.083 79.487,352.867 74.250 C 350.267 71.021,349.364 70.516,345.006 69.851 C 338.763 68.899,335.135 70.071,334.052 73.391 C 332.380 78.520,329.917 79.943,327.375 77.250 C 324.587 74.297,322.406 75.932,322.841 80.648 C 323.101 83.469,322.725 84.328,320.408 86.207 C 317.334 88.701,316.939 90.137,318.391 93.556 C 320.088 97.552,320.074 97.468,319.625 101.099 C 319.135 105.062,318.715 106.843,317.881 108.488 C 317.037 110.154,317.039 111.323,317.887 111.710 C 319.496 112.443,320.555 111.612,321.020 109.251 C 321.381 107.416,322.570 105.490,323.555 105.146 C 325.234 104.560,325.773 106.826,324.620 109.625 C 322.837 113.953,325.209 115.723,332.991 115.873 C 338.541 115.979,339.920 116.480,341.276 118.883 C 342.862 121.693,346.085 120.379,348.731 115.843 C 349.202 115.035,350.223 113.475,350.999 112.375 C 351.776 111.275,352.829 109.618,353.339 108.693 C 355.836 104.171,359.886 104.428,370.422 109.777 C 376.044 112.632,377.351 112.948,381.850 112.544 C 387.597 112.029,387.566 112.074,387.778 103.875 C 387.915 98.569,388.000 97.658,388.514 96.000 C 389.902 91.523,389.236 85.071,387.198 83.250 C 386.505 82.631,385.137 81.379,384.157 80.468 C 382.112 78.567,381.578 78.260,379.000 77.508 C 376.047 76.647,374.791 75.673,372.818 72.712 C 370.573 69.343,368.409 67.780,367.503 68.871 M22.612 69.265 C 21.636 70.343,23.882 71.345,25.125 70.387 C 25.618 70.006,25.616 69.993,24.924 69.376 C 24.071 68.616,23.235 68.576,22.612 69.265 M289.000 74.663 C 287.986 74.927,287.001 74.973,285.250 74.839 C 279.504 74.402,278.296 75.065,274.942 80.502 C 273.263 83.223,273.072 83.983,273.501 86.253 C 273.879 88.256,273.745 88.921,272.627 90.606 C 271.162 92.813,270.862 94.483,271.637 96.115 C 272.478 97.888,274.008 97.652,275.458 95.526 C 277.146 93.051,278.730 92.078,280.343 92.523 C 282.092 93.006,282.510 93.869,282.995 98.000 C 283.452 101.901,285.000 104.572,288.154 106.904 C 291.036 109.036,291.218 109.572,290.125 112.702 C 288.281 117.979,290.210 118.477,305.699 116.725 C 311.704 116.046,312.893 114.202,310.679 109.000 C 308.557 104.013,308.813 98.116,311.396 92.480 C 313.019 88.940,312.888 88.609,309.331 87.250 C 307.767 86.654,307.050 86.214,306.284 85.383 C 305.243 84.254,305.074 83.791,304.423 80.300 C 303.701 76.427,302.732 75.398,299.556 75.127 C 298.494 75.036,296.741 74.802,295.660 74.606 C 293.247 74.169,290.820 74.190,289.000 74.663 M12.595 84.616 C 10.335 85.579,9.204 89.980,10.784 91.661 C 11.897 92.846,12.773 92.134,13.761 89.240 C 14.910 85.873,14.399 83.847,12.595 84.616 M45.225 93.150 C 46.150 94.326,46.223 96.584,45.347 96.920 C 44.372 97.294,43.116 94.417,43.697 93.141 C 44.070 92.324,44.578 92.327,45.225 93.150 M69.946 94.390 C 71.303 95.341,71.514 96.682,70.745 99.458 C 70.467 100.461,69.904 102.856,69.494 104.780 C 68.684 108.575,68.274 109.629,67.512 109.871 C 64.110 110.951,63.190 100.823,66.268 96.176 C 67.638 94.108,68.763 93.562,69.946 94.390 M196.433 99.345 C 198.699 102.192,199.060 103.329,197.944 104.111 C 195.553 105.786,191.949 102.083,192.800 98.824 C 193.322 96.820,194.566 96.999,196.433 99.345 M351.374 99.583 C 353.759 102.072,353.208 106.186,350.395 106.892 C 347.617 107.590,346.002 101.526,348.310 99.063 C 349.167 98.148,350.161 98.317,351.374 99.583 M275.750 110.364 C 275.750 110.936,277.274 112.616,278.206 113.069 C 279.914 113.902,279.975 113.434,278.366 111.835 C 276.878 110.357,275.750 109.722,275.750 110.364 M176.169 222.250 C 173.723 222.406,173.325 222.887,173.276 225.750 C 173.222 228.946,173.905 229.721,179.125 232.382 C 184.574 235.159,184.684 235.384,180.553 235.295 C 173.084 235.135,171.530 235.557,169.212 238.382 C 164.023 244.703,152.225 246.243,145.053 241.535 C 142.401 239.794,141.123 239.641,138.500 240.750 C 135.381 242.069,134.578 242.250,131.845 242.250 C 130.021 242.250,128.628 242.411,127.072 242.801 C 123.896 243.597,115.865 243.599,112.875 242.803 C 110.485 242.167,101.921 237.949,100.212 236.566 C 96.641 233.675,97.046 230.645,101.168 229.422 C 103.746 228.657,104.244 228.006,103.615 226.223 C 102.912 224.229,101.631 224.003,91.014 224.001 L 87.653 224.000 86.388 225.313 C 82.494 229.350,82.702 229.799,89.448 231.906 C 95.367 233.756,96.834 235.509,95.276 238.875 C 94.180 241.243,92.571 242.001,86.820 242.858 C 78.562 244.090,74.973 243.782,67.651 241.216 C 50.010 235.034,49.583 234.961,46.747 237.612 C 44.521 239.694,43.993 239.918,40.750 240.157 C 39.248 240.268,38.002 240.551,36.500 241.123 C 33.510 242.261,32.117 242.520,28.125 242.678 C 20.599 242.975,17.228 241.909,14.837 238.473 C 13.497 236.548,13.255 236.370,11.125 235.740 C 9.009 235.115,4.770 233.778,4.250 233.573 C 4.044 233.491,3.763 233.396,3.625 233.361 C 3.487 233.326,2.869 233.166,2.250 233.006 C 1.631 232.846,0.872 232.654,0.563 232.579 L 0.000 232.442 0.000 241.221 L 0.000 250.000 200.000 250.000 L 400.000 250.000 400.000 237.908 L 400.000 225.815 398.813 225.646 C 397.151 225.410,385.178 225.118,378.796 225.158 C 372.485 225.198,372.658 225.122,372.245 228.032 C 371.795 231.209,372.242 231.827,375.292 232.250 C 379.230 232.796,381.294 234.558,381.664 237.690 C 382.334 243.346,375.285 245.368,367.143 241.855 C 364.764 240.828,364.446 240.816,362.019 241.654 C 358.421 242.897,350.901 241.722,344.437 238.908 C 340.639 237.254,339.712 237.333,336.908 239.550 C 334.285 241.622,331.992 242.359,327.250 242.653 C 324.627 242.816,323.274 242.670,315.187 241.356 C 312.186 240.868,311.431 240.906,309.125 241.663 C 305.344 242.904,301.464 242.768,295.000 241.167 C 293.556 240.810,291.363 240.289,290.125 240.010 C 288.887 239.731,287.256 239.331,286.500 239.122 C 284.644 238.609,283.922 238.823,282.543 240.295 C 279.598 243.437,277.498 243.688,269.375 241.869 C 265.457 240.992,263.300 240.644,260.875 240.500 C 259.087 240.393,257.045 240.164,256.336 239.990 C 255.235 239.721,254.889 239.733,253.961 240.073 C 247.948 242.278,248.674 242.117,244.875 242.091 C 238.939 242.050,235.228 240.919,233.311 238.569 C 230.862 235.565,230.520 235.432,230.111 237.330 C 228.636 244.165,213.818 245.599,197.250 240.509 C 192.611 239.084,184.744 235.446,186.500 235.538 C 188.247 235.630,195.401 233.597,196.040 232.827 C 196.555 232.206,196.379 230.534,195.624 228.875 C 195.248 228.050,194.621 226.419,194.230 225.250 C 193.084 221.827,193.561 221.995,185.177 222.066 C 181.298 222.098,177.245 222.181,176.169 222.250 M313.375 223.406 C 310.831 223.907,310.068 224.109,309.116 224.530 C 304.617 226.520,308.656 230.875,315.000 230.875 C 319.578 230.875,320.673 230.027,320.020 226.985 C 319.345 223.838,317.160 222.661,313.375 223.406 M142.619 224.018 C 142.413 224.667,142.910 225.912,143.458 226.122 C 143.985 226.325,144.780 225.383,144.574 224.800 C 144.136 223.560,142.919 223.074,142.619 224.018 M343.181 225.313 C 341.454 226.614,341.874 230.221,343.864 231.170 C 346.169 232.269,347.982 227.694,346.019 225.731 C 345.222 224.933,343.936 224.744,343.181 225.313 M359.141 226.943 C 358.896 227.187,358.988 228.500,359.250 228.500 C 359.387 228.500,359.500 228.621,359.500 228.769 C 359.500 230.750,363.709 234.787,363.957 233.045 C 364.184 231.450,359.971 226.112,359.141 226.943 M398.976 247.729 C 399.031 247.741,398.817 247.975,398.500 248.250 C 398.040 248.649,398.007 248.750,398.337 248.750 C 398.564 248.750,398.750 248.863,398.750 249.000 C 398.750 249.281,398.240 249.326,397.645 249.098 C 396.336 248.596,397.479 247.420,398.976 247.729 M387.861 248.055 C 387.937 247.980,388.364 247.893,388.812 247.861 C 389.259 247.829,389.420 247.858,389.169 247.924 C 388.727 248.040,388.727 248.060,389.169 248.559 C 389.619 249.068,389.616 249.073,388.932 248.906 C 388.551 248.814,388.007 248.863,387.722 249.015 C 386.927 249.440,386.000 249.107,386.000 248.397 C 386.000 247.849,386.067 247.818,386.862 247.997 C 387.337 248.104,387.786 248.130,387.861 248.055 M390.250 248.425 C 390.250 248.928,390.178 249.028,389.967 248.817 C 389.811 248.661,389.751 248.357,389.834 248.142 C 390.063 247.545,390.250 247.673,390.250 248.425 M391.266 248.009 C 391.600 248.187,391.750 248.187,391.750 248.009 C 391.750 247.866,391.863 247.750,392.000 247.750 C 392.137 247.750,392.250 248.031,392.250 248.375 C 392.250 249.031,391.657 249.248,391.396 248.688 C 391.279 248.438,391.221 248.438,391.104 248.689 C 390.901 249.125,390.500 248.823,390.500 248.235 C 390.500 247.679,390.597 247.650,391.266 248.009 M394.107 248.169 C 394.199 248.408,394.100 248.757,393.879 248.978 C 393.394 249.464,392.664 249.086,392.545 248.287 C 392.443 247.599,393.848 247.493,394.107 248.169 M396.954 248.438 C 396.881 249.072,395.756 249.670,395.747 249.080 C 395.745 248.967,395.675 248.622,395.592 248.313 C 395.459 247.815,395.534 247.750,396.237 247.750 C 396.958 247.750,397.026 247.815,396.954 248.438 M395.294 248.806 C 395.156 248.944,394.909 248.973,394.745 248.872 C 394.518 248.732,394.525 248.639,394.774 248.485 C 395.200 248.222,395.619 248.481,395.294 248.806 " stroke="none" fill="#efebeb" fill-rule="evenodd"></path></g></svg>